<svg xmlns="http://www.w3.org/2000/svg"
    xmlns:xlink="http://www.w3.org/1999/xlink" viewBox="0 0 430 430" width="430" height="430" preserveAspectRatio="xMidYMid meet" style="width: 100%; height: 100%; transform: translate3d(0px, 0px, 0px); content-visibility: visible;">
    <defs>
        <clipPath id="__lottie_element_1682">
            <rect width="430" height="430" x="0" y="0"/>
        </clipPath>
        <clipPath id="__lottie_element_1684">
            <path d="M0,0 L430,0 L430,430 L0,430z"/>
        </clipPath>
    </defs>
    <g clip-path="url(#__lottie_element_1682)">
        <g clip-path="url(#__lottie_element_1684)" transform="matrix(1,0,0,1,0,0)" opacity="1" style="display: block;">
            <g transform="matrix(1,0,0,1,-35,-35)" opacity="1" style="display: block;">
                <g opacity="1" transform="matrix(1,0,0,1,0,0)">
                    <g opacity="1" transform="matrix(1,0,0,1,219.75799560546875,383.1780090332031)">
                        <path stroke-linecap="round" stroke-linejoin="round" fill-opacity="0" class="secondary" stroke="rgb(102,93,245)" stroke-opacity="1" stroke-width="18" d=" M-0.06800000369548798,-55.73500061035156 C-0.06800000369548798,-55.73500061035156 0.06800000369548798,-55.73500061035156 0.06800000369548798,-55.73500061035156 M59.32099914550781,-55.73500061035156 C59.32099914550781,-55.73500061035156 59.457000732421875,-55.73500061035156 59.457000732421875,-55.73500061035156 M29.625999450683594,-55.73500061035156 C29.625999450683594,-55.73500061035156 29.76300048828125,-55.73500061035156 29.76300048828125,-55.73500061035156 M89.01499938964844,-55.73500061035156 C89.01499938964844,-55.73500061035156 89.1520004272461,-55.73500061035156 89.1520004272461,-55.73500061035156 M-29.76300048828125,-55.73500061035156 C-29.76300048828125,-55.73500061035156 -29.625999450683594,-55.73500061035156 -29.625999450683594,-55.73500061035156 M-13.920000076293945,-27.867000579833984 C-13.920000076293945,-27.867000579833984 -13.782999992370605,-27.867000579833984 -13.782999992370605,-27.867000579833984 M45.46900177001953,-27.867000579833984 C45.46900177001953,-27.867000579833984 45.60599899291992,-27.867000579833984 45.60599899291992,-27.867000579833984 M15.774999618530273,-27.867000579833984 C15.774999618530273,-27.867000579833984 15.91100025177002,-27.867000579833984 15.91100025177002,-27.867000579833984 M75.16400146484375,-27.867000579833984 C75.16400146484375,-27.867000579833984 75.30000305175781,-27.867000579833984 75.30000305175781,-27.867000579833984 M-43.61399841308594,-27.867000579833984 C-43.61399841308594,-27.867000579833984 -43.47800064086914,-27.867000579833984 -43.47800064086914,-27.867000579833984 M104.23100280761719,-27.867000579833984 C104.23100280761719,-27.867000579833984 104.36699676513672,-27.867000579833984 104.36699676513672,-27.867000579833984 M29.625999450683594,0 C29.625999450683594,0 29.76300048828125,0 29.76300048828125,0 M59.32099914550781,0 C59.32099914550781,0 59.457000732421875,0 59.457000732421875,0 M-0.06800000369548798,-3.3195290565490723 C-0.06800000369548798,-3.3195290565490723 0.06800000369548798,-3.3195290565490723 0.06800000369548798,-3.3195290565490723"/>
                    </g>
                </g>
            </g>
            <g transform="matrix(1,0,0,1,-30.938995361328125,-35)" opacity="1" style="display: block;">
                <g opacity="1" transform="matrix(1,0,0.0256017055362463,1,-4.391998291015625,0)">
                    <g opacity="1" transform="matrix(1,0,0,1,307.0660095214844,99.91699981689453)">
                        <path stroke-linecap="round" stroke-linejoin="round" fill-opacity="0" class="primary" stroke="rgb(255,255,255)" stroke-opacity="1" stroke-width="12" d=" M-137.5850067138672,70.67900085449219 C-137.5850067138672,70.67900085449219 -137.5850067138672,-42.975921630859375 -137.5850067138672,-42.975921630859375 C-137.5850067138672,-42.975921630859375 -23.722000122070312,-42.975921630859375 -23.722000122070312,-42.975921630859375 C-23.722000122070312,-42.975921630859375 23.722000122070312,4.466115951538086 23.722000122070312,4.466115951538086 C23.722000122070312,4.466115951538086 23.722000122070312,70.98899841308594 23.722000122070312,70.98899841308594 M23.722000122070312,4.467115879058838 C23.722000122070312,4.467115879058838 -23.722000122070312,4.467115879058838 -23.722000122070312,4.467115879058838 C-23.722000122070312,4.467115879058838 -23.722000122070312,-42.975921630859375 -23.722000122070312,-42.975921630859375"/>
                    </g>
                </g>
            </g>
            <g transform="matrix(1,0,0,1,-30.938995361328125,-35)" opacity="1" style="display: block;">
                <g opacity="1" transform="matrix(1,0,0,1,0,0)">
                    <g opacity="1" transform="matrix(1,0,0,1,104.5,226.5)">
                        <path stroke-linecap="round" stroke-linejoin="round" fill-opacity="0" class="primary" stroke="rgb(255,255,255)" stroke-opacity="1" stroke-width="12" d=" M-22.38599967956543,-101.5989990234375 C-22.38599967956543,-101.5989990234375 1.9700000286102295,-34.50600051879883 1.9700000286102295,-34.50600051879883 C1.9700000286102295,-34.50600051879883 22.38599967956543,-34.50600051879883 22.38599967956543,-34.50600051879883"/>
                    </g>
                    <g opacity="1" transform="matrix(1,0,0,1,250.13400268554688,243.58999633789062)">
                        <path stroke-linecap="round" stroke-linejoin="round" fill-opacity="0" class="secondary" stroke="rgb(102,93,245)" stroke-opacity="1" stroke-width="12" d=" M24.951000213623047,-30.309999465942383 C24.951000213623047,-30.309999465942383 38.14622497558594,19.636674880981445 38.14622497558594,19.636674880981445 C25.594987869262695,34.581912994384766 -27.936965942382812,33.5897216796875 -39.92576217651367,18.18974494934082 C-39.92576217651367,18.18974494934082 -24.951000213623047,-30.309999465942383 -24.951000213623047,-30.309999465942383"/>
                    </g>
                    <g opacity="1" transform="matrix(1,0,0,1,0,0)">
                        <path stroke-linecap="round" stroke-linejoin="round" fill-opacity="0" class="primary" stroke="rgb(255,255,255)" stroke-opacity="1" stroke-width="12" d=" M141.55599975585938,170.906005859375 C141.55599975585938,170.906005859375 358.7130126953125,170.906005859375 358.7130126953125,170.906005859375 C365.9779968261719,170.906005859375 371.9209899902344,176.8489990234375 371.9209899902344,184.11399841308594 C371.9209899902344,184.11399841308594 371.9209899902344,200.07200622558594 371.9209899902344,200.07200622558594 C371.9209899902344,207.33700561523438 365.9779968261719,213.27999877929688 358.7130126953125,213.27999877929688 C358.7130126953125,213.27999877929688 141.55599975585938,213.27999877929688 141.55599975585938,213.27999877929688 C134.29100036621094,213.27999877929688 128.34800720214844,207.33700561523438 128.34800720214844,200.07200622558594 C128.34800720214844,200.07200622558594 128.34800720214844,184.11399841308594 128.34800720214844,184.11399841308594 C128.34800720214844,176.8489990234375 134.29100036621094,170.906005859375 141.55599975585938,170.906005859375z M371.9209899902344,192.09300231933594 C371.9209899902344,192.09300231933594 394.4230041503906,192.09300231933594 394.4230041503906,192.09300231933594 M394.4230041503906,180.49400329589844 C394.4230041503906,180.49400329589844 394.4230041503906,203.69200134277344 394.4230041503906,203.69200134277344"/>
                    </g>
                </g>
            </g>
            <g transform="matrix(1,0,0,1,-35.00001525878906,-35)" opacity="1" style="display: block;">
                <g opacity="1" transform="matrix(1,0,0,1,394.4230041503906,192.09300231933594)">
                    <path stroke-linecap="round" stroke-linejoin="round" fill-opacity="0" class="primary" stroke="rgb(255,255,255)" stroke-opacity="1" stroke-width="12" d=" M-34.42599868774414,108.41000366210938 C-34.42599868774414,108.41000366210938 -44.00299835205078,176.6060028076172 -44.00299835205078,176.6060028076172 C-46.45500183105469,194.06199645996094 -59.53799819946289,208.1300048828125 -76.77100372314453,211.83700561523438 C-115.19200134277344,220.1009979248047 -173.25599670410156,220.08900451660156 -211.77699279785156,211.802001953125 C-229.02200317382812,208.0919952392578 -242.12600708007812,194.03199768066406 -244.57899475097656,176.56300354003906 C-244.57899475097656,176.56300354003906 -254.1510009765625,108.41000366210938 -254.1510009765625,108.41000366210938 M-34.42599868774414,21.187000274658203 C-34.42599868774414,21.187000274658203 -34.42599868774414,108.41000366210938 -34.42599868774414,108.41000366210938 C-34.42599868774414,108.41000366210938 -254.1510009765625,108.41000366210938 -254.1510009765625,108.41000366210938 C-254.1510009765625,108.41000366210938 -254.1510009765625,21.187000274658203 -254.1510009765625,21.187000274658203 C-254.1510009765625,21.187000274658203 -252.40231323242188,21.305557250976562 -252.40231323242188,21.305557250976562"/>
                </g>
            </g>
        </g>
    </g>
</svg>